<svg width="568" height="683" viewBox="0 0 568 683" fill="none" xmlns="http://www.w3.org/2000/svg">
<path d="M183.922 53.3125L0.71875 53.7031V683H183.922C387.438 683 511.656 564.25 511.656 368.938C511.656 172.453 387.438 52.9219 183.922 53.3125ZM184.703 556.828H126.891V178.703H183.531C308.141 178.703 383.922 250.578 383.922 368.547C383.922 485.734 308.531 556.828 184.703 556.828Z" fill="#C8CB28"/>
<path d="M239.891 1.3125L56.6875 1.70312V631H239.891C443.406 631 567.625 512.25 567.625 316.938C567.625 120.453 443.406 0.921875 239.891 1.3125ZM240.672 504.828H182.859V126.703H239.5C364.109 126.703 439.891 198.578 439.891 316.547C439.891 433.734 364.5 504.828 240.672 504.828Z" fill="#244688"/>
</svg>
